<svg width="120" height="120" viewBox="0 0 120 120" fill="none" xmlns="http://www.w3.org/2000/svg">
  <path d="M92 13C102.493 13 111 21.5066 111 32C111 42.4934 102.493 51 92 51C81.5066 51 73 42.4934 73 32C73 21.5066 81.5066 13 92 13Z" fill="white"/>
  <path d="M44.5 39C58.031 39 69 49.969 69 63.5C69 77.031 58.031 88 44.5 88C30.969 88 20 77.031 20 63.5C20 49.969 30.969 39 44.5 39Z" fill="white"/>
  <path d="M88.5 64C99.2696 64 108 72.7304 108 83.5C108 94.2696 99.2696 103 88.5 103C77.7304 103 69 94.2696 69 83.5C69 72.7304 77.7304 64 88.5 64Z" fill="white"/>
  <path d="M21 11C29.2843 11 36 17.7157 36 26C36 34.2843 29.2843 41 21 41C12.7157 41 6 34.2843 6 26C6 17.7157 12.7157 11 21 11Z" fill="white"/>
</svg>
